<?xml version="1.0" encoding="UTF-8" standalone="no"?>
<!-- Created with Inkscape (http://www.inkscape.org/) -->
<svg xmlns:dc="http://purl.org/dc/elements/1.1/" xmlns:cc="http://creativecommons.org/ns#" xmlns:rdf="http://www.w3.org/1999/02/22-rdf-syntax-ns#" xmlns:svg="http://www.w3.org/2000/svg" xmlns="http://www.w3.org/2000/svg" xmlns:sodipodi="http://sodipodi.sourceforge.net/DTD/sodipodi-0.dtd" xmlns:inkscape="http://www.inkscape.org/namespaces/inkscape" width="66.927498" height="89.893761" id="svg9648" version="1.1" inkscape:version="0.48.2 r9819" sodipodi:docname="AJAX1.svg">
  <defs id="defs9650">
    <inkscape:perspective sodipodi:type="inkscape:persp3d" inkscape:vp_x="0 : 526.18109 : 1" inkscape:vp_y="0 : 1000 : 0" inkscape:vp_z="744.09448 : 526.18109 : 1" inkscape:persp3d-origin="372.04724 : 350.78739 : 1" id="perspective9656"/>
    <inkscape:perspective sodipodi:type="inkscape:persp3d" inkscape:vp_x="0 : 226.5 : 1" inkscape:vp_y="0 : 1000 : 0" inkscape:vp_z="510 : 226.5 : 1" inkscape:persp3d-origin="255 : 151 : 1" id="perspective18"/>
    <inkscape:perspective id="perspective9680" inkscape:persp3d-origin="0.5 : 0.33333333 : 1" inkscape:vp_z="1 : 0.5 : 1" inkscape:vp_y="0 : 1000 : 0" inkscape:vp_x="0 : 0.5 : 1" sodipodi:type="inkscape:persp3d"/>
    <inkscape:perspective id="perspective9688" inkscape:persp3d-origin="0.5 : 0.33333333 : 1" inkscape:vp_z="1 : 0.5 : 1" inkscape:vp_y="0 : 1000 : 0" inkscape:vp_x="0 : 0.5 : 1" sodipodi:type="inkscape:persp3d"/>
    <inkscape:perspective id="perspective9719" inkscape:persp3d-origin="0.5 : 0.33333333 : 1" inkscape:vp_z="1 : 0.5 : 1" inkscape:vp_y="0 : 1000 : 0" inkscape:vp_x="0 : 0.5 : 1" sodipodi:type="inkscape:persp3d"/>
    <inkscape:perspective id="perspective9754" inkscape:persp3d-origin="0.5 : 0.33333333 : 1" inkscape:vp_z="1 : 0.5 : 1" inkscape:vp_y="0 : 1000 : 0" inkscape:vp_x="0 : 0.5 : 1" sodipodi:type="inkscape:persp3d"/>
    <inkscape:perspective id="perspective9782" inkscape:persp3d-origin="0.5 : 0.33333333 : 1" inkscape:vp_z="1 : 0.5 : 1" inkscape:vp_y="0 : 1000 : 0" inkscape:vp_x="0 : 0.5 : 1" sodipodi:type="inkscape:persp3d"/>
    <inkscape:perspective id="perspective9837" inkscape:persp3d-origin="0.5 : 0.33333333 : 1" inkscape:vp_z="1 : 0.5 : 1" inkscape:vp_y="0 : 1000 : 0" inkscape:vp_x="0 : 0.5 : 1" sodipodi:type="inkscape:persp3d"/>
    <inkscape:perspective id="perspective9872" inkscape:persp3d-origin="0.5 : 0.33333333 : 1" inkscape:vp_z="1 : 0.5 : 1" inkscape:vp_y="0 : 1000 : 0" inkscape:vp_x="0 : 0.5 : 1" sodipodi:type="inkscape:persp3d"/>
    <inkscape:perspective id="perspective9901" inkscape:persp3d-origin="0.5 : 0.33333333 : 1" inkscape:vp_z="1 : 0.5 : 1" inkscape:vp_y="0 : 1000 : 0" inkscape:vp_x="0 : 0.5 : 1" sodipodi:type="inkscape:persp3d"/>
    <inkscape:perspective id="perspective9901-6" inkscape:persp3d-origin="0.5 : 0.33333333 : 1" inkscape:vp_z="1 : 0.5 : 1" inkscape:vp_y="0 : 1000 : 0" inkscape:vp_x="0 : 0.5 : 1" sodipodi:type="inkscape:persp3d"/>
    <inkscape:perspective id="perspective9901-1" inkscape:persp3d-origin="0.5 : 0.33333333 : 1" inkscape:vp_z="1 : 0.5 : 1" inkscape:vp_y="0 : 1000 : 0" inkscape:vp_x="0 : 0.5 : 1" sodipodi:type="inkscape:persp3d"/>
    <inkscape:perspective id="perspective9959" inkscape:persp3d-origin="0.5 : 0.33333333 : 1" inkscape:vp_z="1 : 0.5 : 1" inkscape:vp_y="0 : 1000 : 0" inkscape:vp_x="0 : 0.5 : 1" sodipodi:type="inkscape:persp3d"/>
    <inkscape:perspective id="perspective9990" inkscape:persp3d-origin="0.5 : 0.33333333 : 1" inkscape:vp_z="1 : 0.5 : 1" inkscape:vp_y="0 : 1000 : 0" inkscape:vp_x="0 : 0.5 : 1" sodipodi:type="inkscape:persp3d"/>
    <inkscape:perspective id="perspective10018" inkscape:persp3d-origin="0.5 : 0.33333333 : 1" inkscape:vp_z="1 : 0.5 : 1" inkscape:vp_y="0 : 1000 : 0" inkscape:vp_x="0 : 0.5 : 1" sodipodi:type="inkscape:persp3d"/>
    <inkscape:perspective id="perspective10052" inkscape:persp3d-origin="0.5 : 0.33333333 : 1" inkscape:vp_z="1 : 0.5 : 1" inkscape:vp_y="0 : 1000 : 0" inkscape:vp_x="0 : 0.5 : 1" sodipodi:type="inkscape:persp3d"/>
    <inkscape:perspective id="perspective10086" inkscape:persp3d-origin="0.5 : 0.33333333 : 1" inkscape:vp_z="1 : 0.5 : 1" inkscape:vp_y="0 : 1000 : 0" inkscape:vp_x="0 : 0.5 : 1" sodipodi:type="inkscape:persp3d"/>
    <inkscape:perspective id="perspective10135" inkscape:persp3d-origin="0.5 : 0.33333333 : 1" inkscape:vp_z="1 : 0.5 : 1" inkscape:vp_y="0 : 1000 : 0" inkscape:vp_x="0 : 0.5 : 1" sodipodi:type="inkscape:persp3d"/>
    <inkscape:perspective id="perspective10175" inkscape:persp3d-origin="0.5 : 0.33333333 : 1" inkscape:vp_z="1 : 0.5 : 1" inkscape:vp_y="0 : 1000 : 0" inkscape:vp_x="0 : 0.5 : 1" sodipodi:type="inkscape:persp3d"/>
    <inkscape:perspective id="perspective10209" inkscape:persp3d-origin="0.5 : 0.33333333 : 1" inkscape:vp_z="1 : 0.5 : 1" inkscape:vp_y="0 : 1000 : 0" inkscape:vp_x="0 : 0.5 : 1" sodipodi:type="inkscape:persp3d"/>
    <inkscape:perspective id="perspective10237" inkscape:persp3d-origin="0.5 : 0.33333333 : 1" inkscape:vp_z="1 : 0.5 : 1" inkscape:vp_y="0 : 1000 : 0" inkscape:vp_x="0 : 0.5 : 1" sodipodi:type="inkscape:persp3d"/>
    <inkscape:perspective id="perspective10265" inkscape:persp3d-origin="0.5 : 0.33333333 : 1" inkscape:vp_z="1 : 0.5 : 1" inkscape:vp_y="0 : 1000 : 0" inkscape:vp_x="0 : 0.5 : 1" sodipodi:type="inkscape:persp3d"/>
    <inkscape:perspective id="perspective10293" inkscape:persp3d-origin="0.5 : 0.33333333 : 1" inkscape:vp_z="1 : 0.5 : 1" inkscape:vp_y="0 : 1000 : 0" inkscape:vp_x="0 : 0.5 : 1" sodipodi:type="inkscape:persp3d"/>
    <inkscape:perspective id="perspective10324" inkscape:persp3d-origin="0.5 : 0.33333333 : 1" inkscape:vp_z="1 : 0.5 : 1" inkscape:vp_y="0 : 1000 : 0" inkscape:vp_x="0 : 0.5 : 1" sodipodi:type="inkscape:persp3d"/>
    <inkscape:perspective id="perspective10355" inkscape:persp3d-origin="0.5 : 0.33333333 : 1" inkscape:vp_z="1 : 0.5 : 1" inkscape:vp_y="0 : 1000 : 0" inkscape:vp_x="0 : 0.5 : 1" sodipodi:type="inkscape:persp3d"/>
    <inkscape:perspective id="perspective10383" inkscape:persp3d-origin="0.5 : 0.33333333 : 1" inkscape:vp_z="1 : 0.5 : 1" inkscape:vp_y="0 : 1000 : 0" inkscape:vp_x="0 : 0.5 : 1" sodipodi:type="inkscape:persp3d"/>
    <inkscape:perspective id="perspective10438" inkscape:persp3d-origin="0.5 : 0.33333333 : 1" inkscape:vp_z="1 : 0.5 : 1" inkscape:vp_y="0 : 1000 : 0" inkscape:vp_x="0 : 0.5 : 1" sodipodi:type="inkscape:persp3d"/>
    <inkscape:perspective id="perspective10481" inkscape:persp3d-origin="0.5 : 0.33333333 : 1" inkscape:vp_z="1 : 0.5 : 1" inkscape:vp_y="0 : 1000 : 0" inkscape:vp_x="0 : 0.5 : 1" sodipodi:type="inkscape:persp3d"/>
    <inkscape:perspective id="perspective10530" inkscape:persp3d-origin="0.5 : 0.33333333 : 1" inkscape:vp_z="1 : 0.5 : 1" inkscape:vp_y="0 : 1000 : 0" inkscape:vp_x="0 : 0.5 : 1" sodipodi:type="inkscape:persp3d"/>
    <inkscape:perspective id="perspective10573" inkscape:persp3d-origin="0.5 : 0.33333333 : 1" inkscape:vp_z="1 : 0.5 : 1" inkscape:vp_y="0 : 1000 : 0" inkscape:vp_x="0 : 0.5 : 1" sodipodi:type="inkscape:persp3d"/>
    <inkscape:perspective id="perspective10604" inkscape:persp3d-origin="0.5 : 0.33333333 : 1" inkscape:vp_z="1 : 0.5 : 1" inkscape:vp_y="0 : 1000 : 0" inkscape:vp_x="0 : 0.5 : 1" sodipodi:type="inkscape:persp3d"/>
    <inkscape:perspective id="perspective10656" inkscape:persp3d-origin="0.5 : 0.33333333 : 1" inkscape:vp_z="1 : 0.5 : 1" inkscape:vp_y="0 : 1000 : 0" inkscape:vp_x="0 : 0.5 : 1" sodipodi:type="inkscape:persp3d"/>
    <inkscape:perspective id="perspective11502" inkscape:persp3d-origin="0.5 : 0.33333333 : 1" inkscape:vp_z="1 : 0.5 : 1" inkscape:vp_y="0 : 1000 : 0" inkscape:vp_x="0 : 0.5 : 1" sodipodi:type="inkscape:persp3d"/>
    <inkscape:perspective id="perspective11569" inkscape:persp3d-origin="0.5 : 0.33333333 : 1" inkscape:vp_z="1 : 0.5 : 1" inkscape:vp_y="0 : 1000 : 0" inkscape:vp_x="0 : 0.5 : 1" sodipodi:type="inkscape:persp3d"/>
    <inkscape:perspective id="perspective11594" inkscape:persp3d-origin="0.5 : 0.33333333 : 1" inkscape:vp_z="1 : 0.5 : 1" inkscape:vp_y="0 : 1000 : 0" inkscape:vp_x="0 : 0.5 : 1" sodipodi:type="inkscape:persp3d"/>
    <inkscape:perspective id="perspective11625" inkscape:persp3d-origin="0.5 : 0.33333333 : 1" inkscape:vp_z="1 : 0.5 : 1" inkscape:vp_y="0 : 1000 : 0" inkscape:vp_x="0 : 0.5 : 1" sodipodi:type="inkscape:persp3d"/>
    <inkscape:perspective id="perspective11662" inkscape:persp3d-origin="0.5 : 0.33333333 : 1" inkscape:vp_z="1 : 0.5 : 1" inkscape:vp_y="0 : 1000 : 0" inkscape:vp_x="0 : 0.5 : 1" sodipodi:type="inkscape:persp3d"/>
    <inkscape:perspective id="perspective11687" inkscape:persp3d-origin="0.5 : 0.33333333 : 1" inkscape:vp_z="1 : 0.5 : 1" inkscape:vp_y="0 : 1000 : 0" inkscape:vp_x="0 : 0.5 : 1" sodipodi:type="inkscape:persp3d"/>
    <inkscape:perspective id="perspective11718" inkscape:persp3d-origin="0.5 : 0.33333333 : 1" inkscape:vp_z="1 : 0.5 : 1" inkscape:vp_y="0 : 1000 : 0" inkscape:vp_x="0 : 0.5 : 1" sodipodi:type="inkscape:persp3d"/>
    <inkscape:perspective id="perspective11749" inkscape:persp3d-origin="0.5 : 0.33333333 : 1" inkscape:vp_z="1 : 0.5 : 1" inkscape:vp_y="0 : 1000 : 0" inkscape:vp_x="0 : 0.5 : 1" sodipodi:type="inkscape:persp3d"/>
  </defs>
  <sodipodi:namedview id="base" pagecolor="#ffffff" bordercolor="#666666" borderopacity="1.0" inkscape:pageopacity="0.0" inkscape:pageshadow="2" inkscape:zoom="4" inkscape:cx="27.504642" inkscape:cy="15.867037" inkscape:document-units="px" inkscape:current-layer="layer1" showgrid="false" inkscape:window-width="1280" inkscape:window-height="1004" inkscape:window-x="-8" inkscape:window-y="-8" inkscape:window-maximized="1" fit-margin-top="0.2" fit-margin-left="0.2" fit-margin-right="0.2" fit-margin-bottom="0.2"/>
  <metadata id="metadata9653">
    <rdf:RDF>
      <cc:Work rdf:about="">
        <dc:format>image/svg+xml</dc:format>
        <dc:type rdf:resource="http://purl.org/dc/dcmitype/StillImage"/>
        <dc:title/>
      </cc:Work>
    </rdf:RDF>
  </metadata>
  <g inkscape:label="Livello 1" inkscape:groupmode="layer" id="layer1" transform="translate(-6.7238,-542.97557)">
    <path inkscape:connector-curvature="0" d="m 33.7113,616.08058 -21.915,0 c -2.69,-0.004 -4.87125,-2.1825 -4.8725,-4.87625 l 0,-63.15251 c 0.001,-2.6975 2.1825,-4.8725 4.8725,-4.87625 l 56.78125,0 c 2.6925,0.004 4.8725,2.17875 4.87375,4.87625 l 0,63.15251 c -0.001,2.69375 -2.18125,4.8725 -4.87375,4.87625 l -21.58,0 -0.0475,16.58875 -13.23875,-16.58875 z" style="fill:#1a64b7;fill-opacity:1;fill-rule:nonzero;stroke:none" id="path5434"/>
    <path inkscape:connector-curvature="0" d="m 11.7963,612.95683 23.38375,0 8.73875,10.94875 0.0337,-10.94875 24.625,0 c 1.0025,0 1.815,-0.815 1.815,-1.81875 l 0,-63.15251 c 0,-1.005 -0.8125,-1.8175 -1.815,-1.8175 l -56.78125,0 c -1.0025,0 -1.81375,0.8125 -1.815,1.8175 l 0,63.15251 c 0.001,1.00375 0.8125,1.81875 1.815,1.81875" style="fill:#ffffff;fill-opacity:1;fill-rule:nonzero;stroke:none" id="path5438" sodipodi:nodetypes="ccccsssssccc"/>
    <path inkscape:connector-curvature="0" d="m 41.31494,578.68745 -2.6425,0 0,-5.2775 9.5275,0.009 0,35.49375 -6.885,0 0,-30.225 z" style="fill:#1a64b7;fill-opacity:1;fill-rule:nonzero;stroke:none" id="path5442"/>
    <path inkscape:connector-curvature="0" d="m 21.99155,594.50969 0,6.98 c 0,0.97625 0.1475,2.29375 1.22125,2.29375 1.075,0 1.22125,-1.3175 1.22125,-2.29375 l 0,-10.495 c 0,-0.73125 -0.0987,-1.5125 -1.22125,-1.5125 -1.17125,0 -1.22125,0.78125 -1.22125,1.5125 l -6.8825,0 0,-17.59375 16.015,0 0,5.29 -9.1325,0 0,6.64125 0.0963,0 c 0.73375,-1.1225 2.34625,-1.71 4.005,-1.71 3.71,0 5.22375,2.1975 5.22375,6.20125 l 0,12.79125 c 0,4.63625 -3.85625,6.34375 -8.10375,6.34375 -4.2475,0 -8.10375,-1.7075 -8.10375,-6.34375 l 0,-8.105 6.8825,0 z" style="fill:#1a64b7;fill-opacity:1;fill-rule:nonzero;stroke:none" id="path5454"/>
    <path inkscape:connector-curvature="0" d="m 38.0438,593.76495 -3.42,0 0,-2.71875 3.42,0 0,2.71875 z" style="fill:#1a64b7;fill-opacity:1;fill-rule:nonzero;stroke:none" id="path5456"/>
    <path inkscape:connector-curvature="0" d="m 54.8713,593.76495 -3.42375,0 0,-2.71875 3.42375,0 0,2.71875 z" style="fill:#1a64b7;fill-opacity:1;fill-rule:nonzero;stroke:none" id="path5458"/>
    <path inkscape:connector-curvature="0" d="m 57.97592,578.67282 -2.64125,0 0,-5.26375 9.52375,0.01 0,35.49375 -6.8825,0 0,-30.24 z" style="fill:#1a64b7;fill-opacity:1;fill-rule:nonzero;stroke:none" id="path5462"/>
    <path inkscape:connector-curvature="0" d="m 23.03091,560.15869 c 0,1.265 -0.20625,2.25 -0.77625,2.94375 l 1.3,1.3925 -1.63125,1.39375 -1.57,-1.755 c -0.15625,0.0325 -0.3325,0.0488 -0.505,0.06 -0.17375,0.0163 -0.36625,0.035 -0.57,0.035 -2.8175,0 -3.8,-1.39625 -3.8,-4.07 l 0,-4.8325 c 0,-2.2775 1.36125,-3.54375 3.8,-3.54375 2.43875,0 3.7525,1.26625 3.7525,3.54375 l 0,4.8325 z m -4.76625,0.2375 c 0,0.67625 0.11,1.69375 1.01375,1.69375 0.90125,0 0.96625,-1.0175 0.96625,-1.69375 l 0,-4.8825 c 0,-0.72625 -0.065,-1.595 -0.98375,-1.595 -0.88625,0 -0.99625,0.86875 -0.99625,1.595 l 0,4.8825 z" style="fill:#1a64b7;fill-opacity:1;fill-rule:nonzero;stroke:none" id="path5474"/>
    <path inkscape:connector-curvature="0" d="m 24.31468,552.0668 2.78625,0 0,8.96375 c 0,0.57 0.175,1.05875 0.9675,1.05875 0.72625,0 0.95,-0.63125 0.95,-1.14 l 0,-8.8825 2.785,0 0,8.5975 c 0,2.0125 -0.90125,3.56375 -3.75125,3.56375 -2.36125,0 -3.7375,-1.12625 -3.7375,-3.56375 l 0,-8.5975 z" style="fill:#1a64b7;fill-opacity:1;fill-rule:nonzero;stroke:none" id="path5478"/>
    <path inkscape:connector-curvature="0" d="m 33.18118,563.94369 0,-11.87625 6.3825,0 0,2.37375 -3.59375,0 0,2.1875 3.48375,0 0,2.3725 -3.48375,0 0,2.565 3.785,0 0,2.3775 -6.57375,0 z m 6.4775,-15.39375 -2.7075,2.345 -2.16625,0 1.58,-2.345 3.29375,0 z" style="fill:#1a64b7;fill-opacity:1;fill-rule:nonzero;stroke:none" id="path5482"/>
    <path inkscape:connector-curvature="0" d="m 41.06867,563.94369 0,-11.87625 3.61125,0 c 2.1075,0 3.7525,0.67625 3.7525,3.0725 0,1.04375 -0.38125,1.97875 -1.3475,2.49875 l 0,0.03 c 1.27,0.7325 1.5375,1.36375 1.5375,2.83875 0,2.4075 -1.36125,3.43625 -3.625,3.43625 l -3.92875,0 z m 2.78625,-7.21 c 1.22,-0.0775 1.79125,0 1.79125,-1.4075 0,-1.17 -0.8075,-1.1225 -1.79125,-1.1225 l 0,2.53 z m 0,5.0725 c 1.39625,-0.0338 1.98,0.0625 1.98,-1.53625 0,-1.38 -0.79125,-1.34875 -1.98,-1.3925 l 0,2.92875 z" style="fill:#1a64b7;fill-opacity:1;fill-rule:nonzero;stroke:none" id="path5494"/>
    <path inkscape:connector-curvature="0" d="m 49.90605,563.94369 0,-11.87625 6.3825,0 0,2.37375 -3.59625,0 0,2.1875 3.48375,0 0,2.3725 -3.48375,0 0,2.565 3.78625,0 0,2.3775 -6.5725,0 z" style="fill:#1a64b7;fill-opacity:1;fill-rule:nonzero;stroke:none" id="path5498"/>
    <path inkscape:connector-curvature="0" d="m 62.46267,556.21682 0,-0.75875 c 0,-1.0175 -0.36125,-1.53875 -0.885,-1.53875 -0.87,-0.015 -1.07875,0.46 -1.07875,1.235 l -0.0175,5.87625 c 0,0.66125 0.27375,1.05875 1.0025,1.05875 0.94875,0 1.02625,-0.98375 1.02625,-1.71 l 0,-1.0725 2.78625,0 0,1.45 c 0,2.04625 -1.16875,3.47125 -4.02125,3.47125 -2.565,0 -3.5625,-1.3625 -3.5625,-3.785 l 0,-4.87625 c 0,-2.58 1.18875,-3.785 3.73875,-3.785 2.37375,0 3.80125,1.01125 3.80125,3.435 l 0,1 -2.79,0 z" style="fill:#1a64b7;fill-opacity:1;fill-rule:nonzero;stroke:none" id="path5510"/>
    <path inkscape:connector-curvature="0" d="m 15.1163,567.11745 49.7425,0 0,3.05875 -49.7425,0 0,-3.05875 z" style="fill:#1a64b7;fill-opacity:1;fill-rule:nonzero;stroke:none" id="path5512"/>
  </g>
</svg>