<svg width="193" height="19" viewBox="0 0 193 19" fill="none" xmlns="http://www.w3.org/2000/svg">
<path d="M14.8742 0H2.98942C1.23952 0 0 1.24898 0 2.93878C0 4.62857 1.23952 5.87755 2.98942 5.87755H5.94239V14.9143C5.94239 16.8612 7.25482 18.0367 8.93181 18.0367C10.6088 18.0367 11.9212 16.8612 11.9212 14.9143V5.87755H14.8742C16.6241 5.87755 17.8636 4.62857 17.8636 2.93878C17.8636 1.24898 16.6241 0 14.8742 0Z" fill="#0079F1"/>
<path d="M31.8264 13.2612L26.2486 2.05714C25.5194 0.661224 24.5716 0 23.3685 0C21.6551 0 20.3791 1.32245 20.3791 2.97551C20.3791 3.56327 20.4885 4.11429 20.853 4.73878L26.4308 15.9429C27.16 17.3755 28.1078 18 29.2744 18C30.9879 18 32.2639 16.6776 32.2639 15.0245C32.2639 14.4735 32.1545 13.9224 31.8264 13.2612Z" fill="#0079F1"/>
<path d="M32.2274 3.04898C32.2274 4.77551 33.5398 6.09796 35.2533 6.09796C36.9667 6.09796 38.2792 4.77551 38.2792 3.04898C38.2792 1.32245 36.9667 0 35.2533 0C33.5398 0 32.2274 1.32245 32.2274 3.04898Z" fill="#0079F1"/>
<path d="M44.2581 14.951C44.2581 13.2245 42.9456 11.902 41.2322 11.902C39.5187 11.902 38.2063 13.2245 38.2063 14.951C38.2063 16.6775 39.5187 18 41.2322 18C42.9456 18 44.2581 16.6775 44.2581 14.951Z" fill="#0079F1"/>
<path d="M44.6955 4.73878L50.2733 15.9429C51.0024 17.3755 51.9503 18 53.1169 18C54.8303 18 56.1063 16.6776 56.1063 15.0245C56.1063 14.4367 55.997 13.8857 55.6324 13.2612L50.0546 2.05714C49.3254 0.62449 48.3776 0 47.211 0C45.4975 0 44.2216 1.32245 44.2216 2.97551C44.2216 3.56327 44.3309 4.07755 44.6955 4.73878Z" fill="#0079F1"/>
<path d="M184.032 15.4653C183.339 15.3918 182.756 15.2449 182.209 15.0612C181.188 14.7306 180.386 14.2163 179.876 13.5184C179.329 12.8204 179.001 11.9755 178.818 10.9469H183.376C183.521 11.498 183.886 11.9021 184.469 12.1225C185.053 12.3429 185.745 12.4531 186.584 12.4531C187.349 12.4531 187.933 12.3796 188.297 12.2327C188.662 12.0857 188.844 11.8286 188.844 11.5347C188.844 11.4245 188.808 11.2776 188.771 11.2041C188.698 11.0939 188.625 11.0204 188.516 10.9837C188.297 10.8735 187.896 10.7633 187.313 10.6898C186.729 10.6163 185.855 10.5429 184.724 10.4694C182.865 10.3592 181.48 9.99185 180.605 9.44083C179.693 8.88981 179.256 7.97144 179.256 6.68572C179.256 5.36328 179.803 4.3347 180.933 3.56327C182.063 2.79185 183.631 2.4245 185.709 2.4245C187.823 2.4245 189.464 2.75511 190.63 3.41634C191.833 4.07756 192.599 5.21634 192.964 6.79593H188.589C188.479 6.28164 188.151 5.9143 187.641 5.73062C187.131 5.54695 186.438 5.43674 185.599 5.43674C184.797 5.43674 184.25 5.51021 183.922 5.69389C183.631 5.87756 183.448 6.09797 183.448 6.39185C183.448 6.53878 183.485 6.68572 183.594 6.75919C183.667 6.8694 183.849 6.94287 184.068 7.01634C184.323 7.08981 184.688 7.16328 185.162 7.20001C185.636 7.27348 186.292 7.31021 187.058 7.34695C187.75 7.38368 188.334 7.45715 188.88 7.53062C189.427 7.60409 189.938 7.7143 190.375 7.86123C191.25 8.11838 191.906 8.52246 192.344 9.03674C192.781 9.55103 193 10.249 193 11.1306C193 11.5714 192.927 11.9755 192.818 12.3796C192.708 12.7469 192.526 13.1143 192.271 13.4449C191.797 14.1061 191.104 14.5837 190.12 14.951C189.136 15.3184 187.86 15.5021 186.328 15.5021C185.454 15.5755 184.688 15.5388 184.032 15.4653ZM178.016 15.2082H165.84V2.79185H177.725V6.0245H169.777V7.7143H176.886V10.1755H169.777V11.8653H177.98V15.2082H178.016ZM152.971 15.2082V2.79185H157.273V11.3143H164.199V15.2082H152.971ZM140.065 15.2082V2.79185H144.367V11.3143H151.294V15.2082H140.065ZM138.425 15.2082H126.248V2.79185H138.17V6.0245H130.222V7.7143H137.331V10.1755H130.222V11.8653H138.425V15.2082ZM115.275 15.2082L110.135 2.79185H114.582L117.681 10.7265L120.999 2.79185H125.41L119.941 15.2082H115.275ZM100.437 15.3918C99.7811 15.2816 99.2342 15.098 98.7238 14.8408C97.7395 14.3633 96.9739 13.6286 96.5365 12.6C96.0625 11.5714 95.8438 10.249 95.8438 8.59593V2.79185H100.146V8.55919C100.146 9.7347 100.364 10.5429 100.765 11.0204C101.203 11.498 101.823 11.7184 102.625 11.7184C103.427 11.7184 104.046 11.498 104.447 11.0204C104.849 10.5796 105.067 9.7347 105.067 8.55919V2.79185H109.369V8.59593C109.369 9.40409 109.296 10.1755 109.187 10.8367C109.041 11.498 108.859 12.0857 108.604 12.6367C108.093 13.6653 107.291 14.4 106.307 14.8776C105.286 15.3551 104.083 15.5755 102.625 15.5755C101.786 15.5755 101.057 15.5021 100.437 15.3918ZM89.1358 11.2408C89.7191 10.8 89.9743 10.1021 89.9743 9.07348C89.9743 8.04491 89.6827 7.31021 89.1358 6.83266C88.5525 6.35511 87.7869 6.1347 86.8391 6.1347C85.8547 6.1347 85.0892 6.39185 84.5423 6.8694C83.9955 7.34695 83.7038 8.08164 83.7038 9.07348C83.7038 9.99185 83.9955 10.7265 84.5423 11.1674C85.0892 11.6449 85.8547 11.8653 86.8391 11.8653C87.7869 11.9021 88.5525 11.6816 89.1358 11.2408ZM84.6881 15.3918C84.0319 15.2816 83.4122 15.098 82.8653 14.8776C81.7352 14.4 80.8967 13.7021 80.2769 12.7469C79.6572 11.7918 79.3655 10.5796 79.3655 9.07348V9.03674C79.3655 8.33879 79.4384 7.7143 79.6207 7.12654C79.7665 6.53878 80.0217 5.98776 80.3134 5.51021C80.9331 4.51838 81.8081 3.78368 82.9382 3.2694C84.0684 2.75511 85.3444 2.49797 86.8391 2.49797C87.5682 2.49797 88.2609 2.57144 88.8806 2.68164C89.5368 2.79185 90.1201 3.01225 90.667 3.2694C91.7607 3.78368 92.6356 4.55511 93.2918 5.51021C93.9116 6.50205 94.2397 7.67756 94.2397 9.03674V9.11021C94.2397 9.84491 94.1668 10.5061 94.021 11.0939C93.8751 11.6816 93.6199 12.2327 93.3283 12.7102C92.7085 13.6653 91.8336 14.4 90.7399 14.8408C89.6097 15.3184 88.3338 15.5388 86.8391 15.5388C86.0735 15.5755 85.3444 15.5021 84.6881 15.3918ZM67.7724 7.8245V15.2082H63.7986V2.79185H67.8088L73.7512 9.91838V2.79185H77.725V15.2082H73.8606L67.7724 7.8245Z" fill="#E72A31"/>
</svg>
