<svg width="87" height="24" viewBox="0 0 87 24" fill="none" xmlns="http://www.w3.org/2000/svg">
<path d="M19.4846 0.407715H3.90863C1.63958 0.407715 0 2.04729 0 4.22119C0 6.3951 1.63958 8.03467 3.90863 8.03467H7.78799V19.7679C7.78799 22.3078 9.52272 23.8156 11.6966 23.8156C13.8705 23.8156 15.6053 22.3151 15.6053 19.7679V8.02735H19.4846C21.7537 8.02735 23.3932 6.38778 23.3932 4.21387C23.3932 2.04729 21.761 0.407715 19.4846 0.407715Z" fill="white"/>
<path d="M41.6406 17.6525L34.3504 3.07935C33.4135 1.24214 32.1764 0.407715 30.6101 0.407715C28.3703 0.407715 26.7014 2.11317 26.7014 4.25047C26.7014 5.01902 26.8698 5.7217 27.3016 6.55613L34.5846 21.1293C35.5215 22.9665 36.7585 23.801 38.3249 23.801C40.5647 23.801 42.2335 22.0955 42.2335 19.9582C42.2408 19.1896 42.0725 18.487 41.6406 17.6525Z" fill="white"/>
<path d="M42.1753 4.38222C42.1753 6.622 43.91 8.35673 46.1498 8.35673C48.3896 8.35673 50.1243 6.622 50.1243 4.38222C50.1243 2.14244 48.3896 0.407715 46.1498 0.407715C43.91 0.407715 42.1753 2.14244 42.1753 4.38222Z" fill="white"/>
<path d="M57.9489 19.8266C57.9489 17.5868 56.2141 15.8521 53.9743 15.8521C51.7345 15.8521 49.9924 17.5868 49.9924 19.8266C49.9924 22.0663 51.7272 23.8011 53.967 23.8011C56.2068 23.8011 57.9489 22.0663 57.9489 19.8266Z" fill="white"/>
<path d="M58.483 6.55613L65.766 21.1293C66.7029 22.9665 67.9399 23.801 69.5062 23.801C71.746 23.801 73.4149 22.0955 73.4149 19.9582C73.4149 19.1896 73.2465 18.487 72.8147 17.6525L65.539 3.07935C64.6021 1.24214 63.3651 0.407715 61.7914 0.407715C59.5517 0.407715 57.8828 2.11317 57.8828 4.25047C57.8828 5.01902 58.0512 5.7217 58.483 6.55613Z" fill="white"/>
<path d="M87 6.76839C87 5.88273 86.3852 5.18005 85.3531 5.18005H82.2276V2.05461C82.2276 1.02256 81.5176 0.407715 80.6393 0.407715C79.7536 0.407715 79.0509 1.02256 79.0509 2.05461V5.18005H75.9255C74.8934 5.18005 74.2786 5.89005 74.2786 6.76839C74.2786 7.65406 74.8934 8.35673 75.9255 8.35673H79.0509V11.4822C79.0509 12.5142 79.7609 13.1291 80.6393 13.1291C81.525 13.1291 82.2276 12.5142 82.2276 11.4822V8.35673H85.3531C86.3852 8.36405 87 7.65406 87 6.76839Z" fill="#027AF1"/>
</svg>
