<?xml version="1.0" encoding="utf-8"?>
<svg class="rootHeader-logo" viewBox="0 0 104 54" xmlns="http://www.w3.org/2000/svg"><g fill="none" fill-rule="evenodd"><path d="M9.907 10.987C3.806 17.283.666 25.6.834 35.01c.095 6.131 2.255 11.107 6.234 14.392 4.073 3.36 8.839 4.063 11.314 4.191 9.561.465 19.817-2.31 30.488-8.262.758-.382 14.904-7.648 20.046-16.767 1.563-2.778 2.32-5.314 2.32-7.87 0-.494-.023-.991-.08-1.48C69.503 4.505 47.484.576 34.732.576 25.348.575 16.3 4.376 9.907 10.987" fill="#FFF"></path><path d="M48.185 43.968c-7.712 4.3-18.247 8.653-29.73 8.088-6.56-.324-15.902-4.257-16.115-17.06C1.977 13.885 18.87 2.114 34.733 2.122c11.603 0 33.374 3.486 34.92 17.267.33 2.987-.51 5.698-2.053 8.412-4.995 8.865-19.415 16.166-19.415 16.166" fill="#E10A0A"></path><path d="M41.463 14.752c-.13-.71.637-1.44 1.29-1.577.427-.089.886-.022.948.455.058.45-.353.948-.667 1.272-.208.215-.53.427-.823.417-.17-.005-.38-.03-.522-.13-.19-.132-.13-.266-.226-.437m-1.306 10.683c-.147-.218.015-.824.028-1.073.014-.26.042-.61.063-.817.045-.422.117-.864.14-1.294.026-.507.13-1.092.13-1.588a.027.027 0 0 1 .031.012c.023-.009.117-.993.117-1.056 0-.503.126-1.229.482-1.666.223-.272.51-.51.854-.564.293-.045.597.003.597.324v.097c-.01-.005.049.045.025.045.091-.04.044.027.055.03.008 0 .014.102.013.11.001.003.054.06.063.141.01.11-.064.179-.064.255 0 .036.042.033.04.044-.013.05-.107.149-.107.219.06.034.002.052.08.052 0 .05-.015.13-.017.192.001-.042-.046.181-.029.15-.054.053 0-.007 0 .072.002.008-.098.119-.099.135-.004.06.095.004.101.027 0 .006-.036.061-.036.089 0-.022-.056-.002-.073-.014-.03.018.11.132-.005.132-.033.032.038.095.05.105-.08.033-.095.515-.067.515.02.007.03 0 .03-.022.006-.002-.038.093-.03.093.007 0 .038-.006.038.01 0 .084-.008.274-.008.404 0-.018 0 .408.029.373-.032.041-.078.094-.06.154.01.014.059-.045.05-.045-.094 0 .048.647.01.693-.072.047-.02.07-.073.115-.047 0-.103.23-.081.33.013.057.243.22.117.291-.009 0-.08-.101-.099-.055.023-.018.02-.033-.007-.045-.077 0 .128.278.114.305-.018.02-.116-.084-.15-.084-.119.11-.045.838-.056 1.004-.026.415.078.764-.033 1.098-.184.553-1.906 1.8-2.163.707m16.145-4.763a.62.62 0 0 1-.083.133c.023.012.045.01.066-.005-.024.061-.005.094.055.096-.039.064-.085.036-.118.102a2.104 2.104 0 0 0-.054.175c-.063 0-.066-.039-.059.053 0-.006-.04.193-.04.195-.056.045-.03-.085-.101.026-.053.081-.092.18-.155.255a2.55 2.55 0 0 1-.274.281c-.478.4-1.089.593-1.673.767-.893.268-1.78.635-2.599.996-.77.34-1.54.73-2.245 1.114-.595.326-1.292.647-1.866 1.015-.642.412-1.332.763-2.002 1.147-.79.453-1.555.9-2.346 1.378-.748.453-1.594.884-2.263 1.433-.362.298-.887.583-1.343.9-.151.104-.253.183-.39.28-.167.117-.293.295-.461.404-.177.114-.205.203-.246.452 0 0 .02.09.02.106l-.02.155c-.01.073-.005.268.057.268.02 0-.131.25-.131.265 0 .055.083.016.09.016.05 0-.09.289-.098.314 0 .03.103.077.107.125.008.088-.026.152-.046.232-.03.127-.075.219.029.3-.007-.005-.01.122-.021.129-.07.041-.056-.115-.07.052-.007.067.041.191.047.25.019.181-.027.295-.043.469-.01.116.01.234-.003.4-.002.029.017.508-.017.488.072.044.1.053.1.159 0 .06-.107.003-.107.056.049.026-.031.1-.04.121 0 .037.074-.01.085-.01-.021-.007.048.282.048.282-.036.048-.042.377-.098.381.14-.009-.042.44-.001.473.107.047-.032.311-.034.31.141-.003.02.322.02.457 0-.001.044.032.042.05 0-.003-.044.197-.041.2.016.011.072-.063.072-.069.009 0-.06.137-.06.15 0 .039.047-.017.052-.014 0 .027-.051.048-.051.062 0 .001.07.042.068.043-.134.079.048.089.03.135-.128.075-.257.141-.132.279-.003-.005-.106.135-.04.135-.012 0 .06-.068.06-.02a.07.07 0 0 1-.032.051c.021.008.117-.093.11.005 0 .006.022.119-.005.119 0-.035-.129-.042-.133-.012-.01.063.144.172.14.18-.016.034-.076.006-.099.025-.01.018.087.093.075.148-.014.068.019.006-.027.096-.037.074-.095-.03-.134.017 0 .062.159-.023.143.05.032-.012-.107.026-.061.04.089.025-.003.081-.01.13-.013.105-.045.029-.028.143.023.156.08.071.114.09.042.021-.052.147-.052.143-.004-.004.044.079.037.073.019.031.052-.052.075-.047 0 .009-.095.157-.047.166.037.007.02-.094.06-.07-.042.082-.153.16-.224.233-.035.035.188.265.17.312-.058.049-.129-.042-.163.072.01-.036.026.19 0 .14.075.143.071.005.11-.006-.017.01.107.188.107.202-.045.078-.12.004-.145.086-.006.02.059.088.054.105-.042.152.007.195.007.322.058.023.091-.015.063.069.02-.006.069-.034.09-.028.008.003-.125.286-.113.303.038.034.112-.037.153.01.005.006-.098.042-.08.079.034.073.062.059.097.103.037.045-.084.091-.055.12.12.119-.004.02.025.123.129 0 .006.245.022.25-.043-.014.05-.058-.011-.09-.041-.02-.11.33-.107.334.03.037.12.192.17.17-.02.017.067-.145.073-.07.001.009-.029.072-.028.075.081 0 .065.119.065.16 0 .034-.03-.005-.03-.005.055.083.038.25.072.32.052 0 .042.077.101.039.013.012-.024.044.014.08-.06.045-.147.156-.086.217-.022.026-.212-.014-.212.058 0 .016.168.013.205.036-.06.062-.133.012-.168.05-.03.026.068.63.18.29.101.027-.007.094.048.161-.01-.025-.004-.04.02-.046.145.177.07.068-.067.16-.024-.028.39.187.207.187 0-.004.019-.136-.052-.045-.033.04-.001.012-.05.045.032.08.069.076.006.131-.086.077-.088-.056-.134-.04 0 .048.111.175.154.175 0 .044-.1.026-.091.12.003.039.146.068.074.114.024.002.038-.01.044-.033.02.012-.014.16-.003.166.029.015.174.036.177.014.01.013-.157.257-.157.257 0 .006.09.06.05.075-.258.091-.023.163.066.24 0 .028-.134.07-.146.087-.048.067-.088.165-.136.252-.148.272-.438.47-.715.567-.668.231-1.468-.132-1.679-.817-.252-.816-.165-1.615-.165-2.49 0-1.26.11-2.493.073-3.743a8.172 8.172 0 0 1 .044-.942c.014-.146.03-.294.027-.475-.004-.424.023-.906.007-1.355-.026-.734-.006-1.503-.005-2.262 0-.523.08-1.079.03-1.585-.55.206-1.039.675-1.481 1.04-.327.268-.681.536-1.005.786-.725.56-1.45 1.162-2.172 1.783-1.007.866-2.062 1.698-3.047 2.537-.37.315-.661.744-1.038 1.072-.204.177-.45.345-.645.546-.159.164-.265.32-.427.48-.464.457-.854.935-1.285 1.391-.184.196-.417.37-.599.566-.153.165-.288.399-.439.558-.342.36-.71.714-1.08 1.068-.287.273-.53.64-.948.647-.56.01-1.11-.162-1.348-.725-.308-.727.172-1.247.622-1.782.522-.62 1.16-1.172 1.75-1.721.441-.41.876-.848 1.306-1.234a42.234 42.234 0 0 1 1.792-1.53c.582-.467 1.088-1.004 1.667-1.44a35.71 35.71 0 0 0 1.706-1.403c.282-.246.575-.486.86-.726.117-.1.537-.52.673-.52 0 .001.429-.299.501-.353.277-.21.565-.427.854-.639.52-.38 1.006-.722 1.519-1.119.698-.54 1.433-1.033 2.104-1.585.155-.127.143-.21.166-.41.02-.181-.004-.386-.006-.597-.006-.55-.29-.223-.548-.046-.208.144-.424.307-.691.307-.015.062-.226.05-.233.12.016.03.041.04.077.03-.018.064-.29-.019-.322-.015-.164.02-.38.102-.562.123-.119.014-.23.03-.34.027-.188-.004-.368-.104-.546-.104a.042.042 0 0 1 0 .037l-.316-.197c-.116-.07-.134-.093-.246-.201-.217-.206-.3-.449-.38-.734-.205-.73-.034-1.569-.108-2.304-.031-.31.064-.613.083-.93.018-.297.02-.587.058-.864a8.677 8.677 0 0 1 .38-1.659c.304-.872.862-1.823 1.642-2.347.404-.271 1.72-.952 1.723.026 0 .299-.172.621-.297.836-.088.151-.165.19-.268.293-.055.055-.092.141-.145.212-.052.07-.13.14-.18.22-.092.149-.111.257-.194.383-.056.085-.087.2-.12.306-.06.199-.173.339-.229.538-.08.284-.153.573-.193.854-.015.105-.045.153-.03.267.015.102.089.166.088.284 0 .101-.077.19-.094.29-.025.151-.032.315-.05.468-.034.303-.07.603-.054.88.042.722.258 1.477 1.163 1.057.647-.3.86-.969.95-1.656.076-.597.154-1.175.216-1.772.025-.25-.013-.554-.001-.726.004-.06.075-.092.076-.094.015-.098.018-.203.026-.302.018-.204.037-.409.052-.612.043-.633.065-1.219.128-1.841.06-.605.083-1.097.642-1.382.302-.153.641-.24.994-.122.303.102.379.397.545.505-.006.047-.051.095-.063.157-.017.093-.006.189-.006.282.002.184.031.314.006.46-.035.195-.014.415-.015.607 0 .061-.051.071-.044.134.005.048.033.082.026.135-.007.066.015.241-.019.292-.082.017-.037.05-.047.112.004-.024-.006.282.023.142-.039-.024-.087.555-.092.637-.029.49-.067.982-.104 1.474-.024.31-.057.601-.084.917-.017.189-.148.802-.016.884 0 .037-.056.212-.065.274a5.56 5.56 0 0 0-.032.242 2.684 2.684 0 0 0 0 .307c.005.08.029.136.027.214-.002.083-.017.12-.027.198-.005.035.034.084.029.105-.059 0-.028.49-.04.591a5.47 5.47 0 0 0-.033.659c.001.128.035.388-.007.497.192-.037.296-.213.45-.31.263-.17.561-.306.812-.476a50.6 50.6 0 0 1 2.135-1.362 78.894 78.894 0 0 1 2.278-1.333c1.178-.665 2.334-1.343 3.487-2.016.413-.24.831-.472 1.247-.708.114-.064.221-.135.33-.205.152-.099.436-.202.548-.342.123-.154.079-.084-.024-.194-.122-.13-.253-.196-.343-.366-.178-.34-.116-.716-.137-1.094-.015-.276.028-.548.045-.833.011-.21-.01-.404 0-.61.007-.137.068-.265.067-.397 0-.066-.058-.163-.066-.24-.001-.02.048-.128.053-.154a.498.498 0 0 1-.011-.12c.007-.16.055-.414.067-.603.005-.085-.03-.306-.023-.338 0-.298.11-.764-.006-1.052-.124-.307-.482-.348-.747-.277a1.37 1.37 0 0 0-.653.455c-.072.097-.151.214-.245.327-.034.04-.283.26-.271.173-.007.006.064.06.045.087-.027.035-.114.13-.138.172-.069.113-.053.08-.088.239-.032.14-.109.164-.128.251-.013.06.001.173-.014.247-.01.056-.036.114-.047.176-.011.06.104.018.027.124-.04.056-.111-.092-.118-.037a.443.443 0 0 1-.031.097c.013.087.126.044.126.08 0 .068-.09.155-.136.175-.05-.038.137.056.118.052-.017.05-.14.047-.173.133l.014.208c.02.08.084.096.086.192 0 .051-.093.116-.119.096.026-.01.034.003.025.039a.448.448 0 0 0-.095.026c-.001-.001.067.08.06.088a.102.102 0 0 1-.087-.014c0 .166.109.225.133.353v.12c.005.122.025.014.059.11.006.018-.153.074-.156.074 0 .007-.03-.144-.034-.12-.01.056-.026.179-.024.203.003.062.071.152.067.213-.218.06-.076.558-.076.714 0 .019-.082.058-.032.086.022.012.091-.083.114-.043.018.08-.108.17-.105.228.004.081.079.12.079.18a.151.151 0 0 0-.101.018c-.018.036.12.044.121.07.009.088-.026.13-.037.202-.004.034-.067.312-.008.32-.018-.004-.066-.107-.078-.099-.028.105.092.192.097.278.007.123-.046.116-.097.204-.055.094-.157.167-.101.292-.012-.027-.187.338-.177.33-.24.18-.616.446-.956.545-.288.084-.694.064-.877-.211-.123-.186-.093-.461-.087-.672.028-1.021.039-1.933.121-2.973.034-.43.04-.914.052-1.363.02-.816-.016-1.805.53-2.47.135-.165.305-.293.492-.392.107-.056.21-.104.327-.138.217-.064.429.007.63-.033.149-.029.196-.123.366-.097.078.012.056.064.124.082.258.064.532-.001.765-.131.487-.273.731-.872 1.224-1.173.36-.219.703-.396 1.12-.444.202-.023.422-.005.609.08.164.074.258.23.377.206-.01.002.105.3.105.355a.132.132 0 0 0 .055-.03c.019.049-.023.133.004.199.028.067.078.12.136.187-.024.074-.14-.009-.088.176.031.11.073.11.156.139 0-.001-.065.194.025.26 0 .015-.17.09-.194.171-.007.027.013.381.011.38.033.028.097-.127.13-.095.008.014-.062.391.034.298.003.047-.152.084-.118.19 0 .148.207.376-.055.376-.027.12.093.195.092.216-.003.057-.101.088-.1.098.007.038.018.186.098.186-.198 0-.126.389-.127.572 0 .131.064.403.058.48-.006.068.093.107-.058.107-.025.023.065.218.067.214a.097.097 0 0 1-.067.02c-.02.152.08.153.111.26-.007-.024-.012.144-.013.148-.01.067.032.05.013.117 0 .02 0-.105-.025-.047-.037.085.002.126-.017.197-.01.038-.003.108-.008.146-.002.023-.064-.047-.068-.017-.003.015 0 .173.021.175.077.007-.005-.055.053-.066.138-.037-.073.19-.06.128-.003.021.08.023.06.042-.136.132.098.108.02.208-.091.015-.08.042-.064.162.017.12-.04.076.101.137 0 .08-.062.075-.027.176.003.008.092-.005.091.025-.002.08-.043.142-.043.208-.031.025.056.055.1.117.016.025.02.174.042.192.022.018.098.031.133.06.043.034.068.064.118.097.16.102.396.006.592-.074.184-.074.532-.198.666-.298.312-.142.749-.398 1.051-.562.285-.155.5-.308.833-.344.272-.03.636.147.883.08-.106-.137.135.052.147.049a.208.208 0 0 0-.027-.04c.215 0 .51.772.473.785m-27.976 3.01c.127.025.483-.078.633-.122.224-.066.389-.187.618-.217 0-.048-.043 0-.063-.016 0-.089.466-.136.523-.22-.028-.015 0-.09.041-.016.093 0 .01-.054.039-.075.396-.277.854-.007 1.033.363.187.388.147.81-.159 1.16-.291.333-.726.575-1.04.856a2.63 2.63 0 0 0-.453.551c-.08.13-.149.236-.213.373-.02.042-.015.127-.025.167-.022.085-.077.045-.013.126-.052.08-.049.171-.073.259-.012.045-.063.1-.075.158-.015.079.039.175.03.241-.005.03-.104.034-.12.075-.005.013-.01.16-.019.215-.032.195-.017.307-.021.565-.006.312-.048.607-.055.948-.02.92.133 2.432-.778 2.996-.36.223-1.01.634-1.369.276-.364-.362-.284-1.082-.27-1.55.019-.533.098-1.027.09-1.561a5.92 5.92 0 0 1 .022-.596c.01-.125.01-.174.05-.317.036-.125.045-.228.053-.36.02-.378.066-.76.087-1.138.03-.54-.01-1.055.09-1.594.086-.464.239-.882.616-1.185a1.95 1.95 0 0 1 .34-.21c.092-.047.473-.143.481-.153m-3.24 2.76c-.005-.025-.159.118-.17.148-.034.088.042.196.063.273.018.072.062.12.068.163.003.02-.047.113-.05.152-.004.076.027.107.012.197-.013.073-.075.137-.087.211-.019.117-.008.28-.024.412-.034.291-.12.6-.125.904-.008.403-.1.746-.141 1.124-.078.7-.18 1.423-.245 2.123-.014.16.025.323.033.485.005.122-.053.238-.074.36-.022.121-.003.264-.031.394-.025.115-.151.358-.108.471.028.072.134-.114.14.075.002.103-.096.172-.164.055 0 0-.027.132-.034.136 0 0-.146.043-.116.016-.06.056-.137.126-.207.188-.194.176-.438.35-.679.452-.284.12-.657.146-.843-.16-.24-.394-.115-1.05-.08-1.482.038-.488.008-1 .05-1.473.076-.88.216-1.661.206-2.594-.01-.962.052-2.095.725-2.85.269-.3.827-.747 1.306-.648.253.053.397.269.435.53.012.086-.04.339.14.339M26 21.23c-.057.103.007.119 0 .2-.08.044-.268.419-.337.52a1.949 1.949 0 0 1-.47.476c-.171.119-.409.303-.593.39-.08.038-.517.105-.517-.01-.08-.057-.122-.036-.209-.108.006.005-.114-.175-.093-.128a1.015 1.015 0 0 1-.087-.394c0-.435.342-.909.664-1.183.328-.28.796-.643 1.21-.577.193.03.229.144.29.3.05.132.218.372.142.514m-5.557 7.054c.182-.109.066-.463.057-.615-.01-.179.06-.37.122-.49.023-.046.189-.192.042-.213 0-.127.089-.275.105-.419.016-.15.043-.334.082-.495.079-.33.13-.691.196-1.026.11-.551.23-1.044.397-1.597.07-.23.16-.412.242-.632.061-.166.141-.32.2-.473.062-.159.044-.383.134-.54.076-.136.177-.191.245-.337.086-.184.06-.315.075-.49.03-.362.07-.761.196-1.079a4.99 4.99 0 0 0 .261-.775c.055-.235.204-.436.231-.623.022-.153-.011-.143.055-.31.04-.1.08-.221.112-.322.006-.02.045-.489.118-.455-.185-.086.975-2.874 1.123-3.2.146-.319.184-.617.321-.964.109-.276.224-.515.325-.76a22.71 22.71 0 0 1 1.085-2.267c.2-.356.483-.741.755-1.062.068-.079.15-.193.215-.248.023-.02.258-.275.257-.275.055 0-.007.066 0 .077 0 .044.173-.216.162-.233.015.023-.023.029-.004.046.048.064.072-.075.06-.07.02-.037.12-.039.197-.13a.357.357 0 0 0 .075-.123c.06-.162.019-.126.114-.207-.014-.16.194-.356.27-.507.122-.242.154-.513.154-.77 0-.526-.235-1.03-.633-1.36-.64-.531-1.536-.482-2.189.055-.88.722-1.188 1.958-1.61 3.001-.561 1.39-1.015 2.825-1.539 4.23-.272.73-.478 1.51-.788 2.217-.124.281-.174.58-.284.872-.127.338-.265.663-.365 1.013-.147.516-.262 1.02-.38 1.528-.164.702-.409 1.385-.57 2.089-.267 1.162-.63 2.333-.883 3.512-.35 1.628-.691 3.228-.957 4.875-.131.814-.298 1.628-.395 2.446-.06.5-.13 1.002-.197 1.501-.02.155-.028.74-.177.781-.048.025-.01-.159-.132-.095-.09-.225.079-.537-.173-.624.117-.246-.036-.66-.034-.924 0-.137.062-.308.013-.449.014.04-.18-.308-.082-.233 0-.047-.056.042-.074.013-.073-.118.082-.156.082-.225-.016 0-.13.04-.128.04-.12-.054.031-.54.055-.63.055-.21-.037-.384-.105-.568-.103-.277-.102-.584-.183-.872a1.148 1.148 0 0 1-.045-.305c0 .023.034-.172.053-.052-.007-.043-.05-.119-.053-.154a2.494 2.494 0 0 0-.202-.783c-.01-.023-.064-.103-.068-.129-.007-.063.029-.15.016-.198-.015-.053-.092-.024-.11-.083-.023-.072-.017-.165-.03-.242-.024-.153-.015-.175-.048-.327-.03-.14-.044-.231-.073-.365-.006-.033 0-.323.011-.304a.852.852 0 0 1-.073-.148c-.02-.074-.033-.158-.047-.244-.02-.13.038-.208.035-.298-.006-.146-.21-.7-.094-.721 0-.053-.075.003-.1-.013.086-.166-.105-.653-.144-.92-.062-.427-.134-.835-.194-1.255-.127-.878-.24-2.642-1.585-2.352-.725.157-.923.913-1.146 1.557-.203.586-.38 1.252-.582 1.857-.248.742-.464 1.51-.72 2.254-.11.325-.226.695-.372.986-.095.19-.133.499-.235.762-.163.419-.245.693-.384 1.099-.145.424-.48 1.039-.367 1.502.114.462.573.7 1.003.639a.96.96 0 0 0 .378-.107c.105-.06.162-.139.257-.208.035-.025.158-.074.17-.088.01-.033-.007-.15.011-.222a1.97 1.97 0 0 1 .048-.16c.045-.105.11-.24.162-.356.048-.107.107-.185.167-.31.025-.053.004-.118.03-.172.003-.007.187-.25.192-.218-.011-.048-.101.012-.072-.084.011-.038.055-.092.064-.12.015-.045.022-.088.046-.142.016-.035.129-.377.138-.371-.156-.058.01-.03.028-.043.062-.045.064-.399.091-.468.013-.036.199-.446.2-.443a.074.074 0 0 0-.05-.013c.013.01.07-.136.066-.118.016-.072.042-.042.042-.14 0 .017.11-.116.057-.168-.02.072-.046-.068-.042-.086.02-.02.2.03.2 0 .004-.058-.064-.045-.074-.04-.007-.004.017-.14.018-.148.11-.013.09.026.163-.09.01-.015.04-.116.055-.164.048-.137.022-.223.18-.21.033.004.25.136.246.153 0 .02-.071.138-.059.175.052.154.153-.086.186.038-.009-.02-.041.119-.04.134.003.031.04.11.04.124-.003.064-.052.098-.06.193-.008.115.09.277.15.382.051.094.121.234.032.362.027 0 .046-.013.058-.039.062.395.116.824.168 1.21.032.245.11.49.117.735.005.13-.024.274 0 .382.034.16.111.376.142.584.033.225.063.497.1.745.059.415.14.83.186 1.243.135 1.214.324 2.32.512 3.466.027.16.061.317.087.482.024.15-.018.254-.016.407.002.132.008.07.046.17.026.07.11.117.1.211-.008.073-.164.132-.132.188.197 0 .153.025.2.28.026.144.013.279.013.365 0 .032.084.15.097.197.028.095.009.203.019.3.017.166.093.43.134.641.061.323.075.619.14.977.11.592.25 1.151.37 1.77.158.805 1.092 1.128 1.663.475.255-.292.306-.747.368-1.098.076-.432.142-.883.208-1.329.057-.383.103-.76.162-1.144.066-.432.045-.944.158-1.33.055-.08.036-.324.052-.432.022-.145.046-.314.063-.46.037-.333.078-.698.12-1.021.04-.308.034-.608.116-.906.028-.103.076-.173.103-.273.026-.093-.017-.261.048-.313.031-.025.125.052.15-.07.025-.128-.102-.143-.13-.233-.043-.143.029-.39.047-.537.016-.136.01-.339.04-.459.019-.076.062-.18.095-.237a1.19 1.19 0 0 0 .153-.345c.028-.096.096-.228.1-.369.002-.098-.03-.171-.03-.254-.099-.053-.11-.024-.117-.179-.007-.117.019-.257.04-.385.017-.1.116-.726.203-.726-.011.006-.057-.192-.055-.2.016-.1.08-.121.104-.19.077-.219.01-.47.048-.69.03-.189.135-.398.148-.561.013-.147-.009-.219.085-.292" fill="#FFF"></path><path d="M56.569 26.405c-6.386 0-11.583 5.29-11.583 11.784 0 6.5 5.197 11.788 11.583 11.788h35.277c6.391 0 11.587-5.287 11.587-11.788 0-6.494-5.196-11.784-11.587-11.784H56.569z" fill="#FFF"></path><path d="M56.569 27.94h35.277c5.567 0 10.084 4.597 10.084 10.249 0 5.66-4.517 10.245-10.084 10.245H56.569c-5.568 0-10.07-4.585-10.07-10.245 0-5.652 4.502-10.248 10.07-10.248" fill="#000"></path><path d="M85.434 31.53c.479.005.87.402.87.89v9.79a.9.9 0 0 1-.836.881h-.109a.903.903 0 0 1-.825-.903v-9.791a.887.887 0 0 1 .847-.866h.053zm-2.537 10.658c0 .49-.388.879-.853.903h-.049a.894.894 0 0 1-.862-.903v-6.142a.89.89 0 0 1 .862-.898h.015c.5.005.887.405.887.898v6.142zm-22.622 0c0 .49-.393.889-.866.903h-.026a.9.9 0 0 1-.883-.903v-4.785c0-.766-.507-1.27-1.462-1.27-.52 0-.81.08-1.156.22v5.829c0 .498-.395.91-.882.91h-.025a.896.896 0 0 1-.858-.894V35.57c.777-.378 1.615-.572 2.92-.572 1.266 0 1.99.37 2.433.871.523-.491 1.321-.87 2.508-.87 1.865 0 2.68 1.178 2.68 2.426v4.762a.901.901 0 0 1-.84.903h-.067a.892.892 0 0 1-.854-.881v-4.763c0-.693-.376-1.298-1.32-1.298-.541 0-.94.178-1.302.542v5.497zm30.593-6.08c.974 0 1.54.646 1.54 2.255l-3.235.49c-.04-1.895.67-2.746 1.695-2.746zm3.249 6.027c0 .235-.13.446-.32.542-.546.306-1.388.554-2.586.554-2.213 0-3.622-1.456-3.622-4.129 0-2.603 1.292-4.103 3.34-4.103 2.063 0 3.205 1.401 3.13 4.065l-4.786.706c.142 1.479.846 2.208 2.127 2.208.81 0 1.419-.175 1.838-.374a.651.651 0 0 1 .284-.076c.328 0 .595.275.595.607zm-11.13-9.249c0 .488-.424.889-.977.889-.524 0-.97-.4-.97-.889 0-.498.446-.888.97-.888.553 0 .976.39.976.888zm-6.908 9.24c-.328 0-.664-.057-.895-.16v-5.64c.29-.163.58-.235 1.051-.235 1.338 0 1.802 1.298 1.802 2.94 0 1.887-.568 3.095-1.958 3.095zm3.71-3.193c0 2.667-1.348 4.298-3.783 4.298-1.2 0-2.084-.248-2.58-.568V32.42c0-.495.391-.89.885-.89.011 0 .029-.01.046 0 .458.015.827.409.827.888v2.95c.374-.175.8-.33 1.531-.33 1.81 0 3.074 1.52 3.074 3.895zm-7.499.188c0 2.345-1.06 4.11-3.243 4.11-2.198 0-3.247-1.765-3.247-4.11 0-2.367 1.05-4.121 3.247-4.121 2.2 0 3.243 1.755 3.243 4.122zm-1.754-.014c0 1.503-.233 2.903-1.489 2.903-1.222 0-1.496-1.4-1.496-2.903 0-1.515.25-2.974 1.496-2.974 1.256 0 1.49 1.46 1.49 2.974z" fill="#FFF"></path></g></svg>
